<?xml version="1.0" encoding="UTF-8" standalone="no"?>
<svg
   xmlns:dc="http://purl.org/dc/elements/1.1/"
   xmlns:cc="http://creativecommons.org/ns#"
   xmlns:rdf="http://www.w3.org/1999/02/22-rdf-syntax-ns#"
   xmlns:svg="http://www.w3.org/2000/svg"
   xmlns="http://www.w3.org/2000/svg"
   width="210mm"
   height="297mm"
   viewBox="0 0 210 297"
   version="1.1"
   id="svg9020">
  <defs
     id="defs9014" />
  <metadata
     id="metadata9017">
    <rdf:RDF>
      <cc:Work
         rdf:about="">
        <dc:format>image/svg+xml</dc:format>
        <dc:type
           rdf:resource="http://purl.org/dc/dcmitype/StillImage" />
        <dc:title></dc:title>
      </cc:Work>
    </rdf:RDF>
  </metadata>
  <path
     id="path6103"
     d="m 108.77704,152.73115 a 2.5944941,2.4999999 0 0 0 -0.2961,0.0181 2.5944941,2.4999999 0 0 0 -0.40876,0.0786 2.5944941,2.4999999 0 0 0 -0.91106,0.45062 2.5944939,2.4999998 0 0 0 -0.0548,0.0403 2.5944941,2.4999999 0 0 0 -5.1e-4,5.2e-4 2.5944941,2.4999999 0 0 0 -0.18966,0.17053 2.5944939,2.4999998 0 0 0 -0.17104,0.18707 2.5944941,2.4999999 0 0 0 -0.1509,0.20361 2.5944939,2.4999998 0 0 0 -0.12919,0.21652 2.5944941,2.4999999 0 0 0 0,5.2e-4 2.5944939,2.4999998 0 0 0 -0.10594,0.22737 2.5944941,2.4999999 0 0 0 0,5.2e-4 2.5944939,2.4999998 0 0 0 -0.0816,0.23668 2.5944941,2.4999999 0 0 0 0,5.1e-4 2.5944939,2.4999998 0 0 0 -0.0568,0.2434 2.5944941,2.4999999 0 0 0 0,5.2e-4 2.5944939,2.4999998 0 0 0 -0.004,0.031 2.5944939,2.4999998 0 0 0 -0.0336,0.39378 v 9.25008 12.50001 9.25008 a 2.5944941,2.5 0 0 0 2.59415,2.50011 2.5944939,2.4999998 0 0 0 5.2e-4,0 h 14.95671 a 1,1 0 0 1 0.99942,-0.9865 1,1 0 0 1 0.99942,0.9865 h 17.601 a 1,1 0 0 1 0.99942,-0.9865 1,1 0 0 1 0.99942,0.9865 h 17.601 a 1,1 0 0 1 0.99942,-0.9865 1,1 0 0 1 0.99942,0.9865 h 5.15524 a 2.594494,2.4999999 0 0 0 0.29662,-0.0181 2.5944941,2.4999998 0 0 0 0.40876,-0.0786 2.594494,2.4999999 0 0 0 0.41393,-0.15141 2.5944941,2.4999998 0 0 0 0.12454,-0.0579 2.594494,2.4999999 0 0 0 5.2e-4,-5.1e-4 2.5944941,2.4999998 0 0 0 0.0904,-0.0532 2.594494,2.4999999 0 0 0 0.28164,-0.18759 2.5944941,2.4999998 0 0 0 0.0548,-0.0403 2.594494,2.4999999 0 0 0 5.2e-4,-5.2e-4 2.5944941,2.4999998 0 0 0 0.18965,-0.17053 2.5944941,2.4999998 0 0 0 0.15658,-0.17105 2.594494,2.4999999 0 0 0 0.015,-0.0165 2.5944941,2.4999998 0 0 0 0.15038,-0.20309 2.594494,2.4999999 0 0 0 0.12919,-0.21704 2.5944941,2.4999998 0 0 0 0.10594,-0.22737 2.594494,2.4999999 0 0 0 0,-5.2e-4 2.5944941,2.4999998 0 0 0 0.0816,-0.23668 2.594494,2.4999999 0 0 0 0,-5.1e-4 2.5944941,2.4999998 0 0 0 0.0568,-0.2434 2.594494,2.4999999 0 0 0 0,-5.2e-4 2.5944941,2.4999998 0 0 0 0.004,-0.031 2.594494,2.4999999 0 0 0 0.0336,-0.39378 v -9.25008 -12.50001 -9.25008 a 2.594494,2.4999999 0 0 0 -2.59415,-2.50011 h -14.95723 a 1,1 0 0 1 -0.99942,0.9865 1,1 0 0 1 -0.99943,-0.9865 h -17.60099 a 1,1 0 0 1 -0.99942,0.9865 1,1 0 0 1 -0.99942,-0.9865 h -17.60099 a 1,1 0 0 1 -0.99943,0.9865 1,1 0 0 1 -0.99942,-0.9865 z m 6.15518,2.15594 a 1.5874997,1.5874997 0 0 1 1.5875,1.5875 1.5874997,1.5874997 0 0 1 -1.5875,1.5875 1.5874997,1.5874997 0 0 1 -1.5875,-1.5875 1.5874997,1.5874997 0 0 1 1.5875,-1.5875 z m 19.60036,0 a 1.5874996,1.5874996 0 0 1 1.5875,1.5875 1.5874996,1.5874996 0 0 1 -1.5875,1.5875 1.5874996,1.5874996 0 0 1 -1.5875,-1.5875 1.5874996,1.5874996 0 0 1 1.5875,-1.5875 z m 19.59932,0 a 1.5874996,1.5874996 0 0 1 1.5875,1.5875 1.5874996,1.5874996 0 0 1 -1.5875,1.5875 1.5874996,1.5874996 0 0 1 -1.5875,-1.5875 1.5874996,1.5874996 0 0 1 1.5875,-1.5875 z m -39.19968,8.49974 a 1.5874997,1.5874997 0 0 1 1.5875,1.5875 1.5874997,1.5874997 0 0 1 -1.5875,1.5875 1.5874997,1.5874997 0 0 1 -1.5875,-1.5875 1.5874997,1.5874997 0 0 1 1.5875,-1.5875 z m 19.60036,0 a 1.5874996,1.5874996 0 0 1 1.5875,1.5875 1.5874996,1.5874996 0 0 1 -1.5875,1.5875 1.5874996,1.5874996 0 0 1 -1.5875,-1.5875 1.5874996,1.5874996 0 0 1 1.5875,-1.5875 z m 19.59932,0 a 1.5874996,1.5874996 0 0 1 1.5875,1.5875 1.5874996,1.5874996 0 0 1 -1.5875,1.5875 1.5874996,1.5874996 0 0 1 -1.5875,-1.5875 1.5874996,1.5874996 0 0 1 1.5875,-1.5875 z m -39.19968,4.34444 a 1,1 0 0 1 0.99994,0.99994 1,1 0 0 1 -0.99994,0.99994 1,1 0 0 1 -0.99994,-0.99994 1,1 0 0 1 0.99994,-0.99994 z m 19.59984,0 a 1,1 0 0 1 0.99994,0.99994 1,1 0 0 1 -0.99994,0.99994 1,1 0 0 1 -0.99994,-0.99994 1,1 0 0 1 0.99994,-0.99994 z m 19.59984,0 a 1,1 0 0 1 0.99994,0.99994 1,1 0 0 1 -0.99994,0.99994 1,1 0 0 1 -0.99994,-0.99994 1,1 0 0 1 0.99994,-0.99994 z m -29.39821,4.00027 a 1,1 0 0 1 0.99994,0.99994 1,1 0 0 1 -0.99994,0.99994 1,1 0 0 1 -0.99994,-0.99994 1,1 0 0 1 0.99994,-0.99994 z m 19.59984,0 a 1,1 0 0 1 0.99994,0.99994 1,1 0 0 1 -0.99994,0.99994 1,1 0 0 1 -0.99994,-0.99994 1,1 0 0 1 0.99994,-0.99994 z m 19.59984,0 a 1,1 0 0 1 0.99994,0.99994 1,1 0 0 1 -0.99994,0.99994 1,1 0 0 1 -0.99994,-0.99994 1,1 0 0 1 0.99994,-0.99994 z m -39.19968,3.16932 a 1.5874996,1.5874996 0 0 1 1.5875,1.5875 1.5874996,1.5874996 0 0 1 -1.5875,1.5875 1.5874996,1.5874996 0 0 1 -1.5875,-1.5875 1.5874996,1.5874996 0 0 1 1.5875,-1.5875 z m 19.59932,0 a 1.5874996,1.5874996 0 0 1 1.5875,1.5875 1.5874996,1.5874996 0 0 1 -1.5875,1.5875 1.5874996,1.5874996 0 0 1 -1.5875,-1.5875 1.5874996,1.5874996 0 0 1 1.5875,-1.5875 z m 19.60036,0 a 1.5874997,1.5874997 0 0 1 1.5875,1.5875 1.5874997,1.5874997 0 0 1 -1.5875,1.5875 1.5874997,1.5874997 0 0 1 -1.5875,-1.5875 1.5874997,1.5874997 0 0 1 1.5875,-1.5875 z m -39.19968,8.49974 a 1.5874996,1.5874996 0 0 1 1.5875,1.5875 1.5874996,1.5874996 0 0 1 -1.5875,1.5875 1.5874996,1.5874996 0 0 1 -1.5875,-1.5875 1.5874996,1.5874996 0 0 1 1.5875,-1.5875 z m 19.59932,0 a 1.5874996,1.5874996 0 0 1 1.5875,1.5875 1.5874996,1.5874996 0 0 1 -1.5875,1.5875 1.5874996,1.5874996 0 0 1 -1.5875,-1.5875 1.5874996,1.5874996 0 0 1 1.5875,-1.5875 z m 19.60036,0 a 1.5874997,1.5874997 0 0 1 1.5875,1.5875 1.5874997,1.5874997 0 0 1 -1.5875,1.5875 1.5874997,1.5874997 0 0 1 -1.5875,-1.5875 1.5874997,1.5874997 0 0 1 1.5875,-1.5875 z"
     style="opacity:1;fill:#ff0000;fill-opacity:1;stroke:none;stroke-width:0.60000002;stroke-linecap:square;stroke-linejoin:round;stroke-miterlimit:4;stroke-dasharray:none;stroke-opacity:1" />
  <path
     id="path6105"
     d="m 108.77704,110.39833 a 2.5944941,2.4999999 0 0 0 -0.2961,0.0181 2.5944941,2.4999999 0 0 0 -0.40876,0.0785 2.5944941,2.4999999 0 0 0 -0.41393,0.15141 2.5944941,2.4999998 0 0 0 -0.12454,0.0579 2.5944941,2.4999999 0 0 0 -5.2e-4,5.2e-4 2.5944941,2.4999998 0 0 0 -0.0904,0.0532 2.5944941,2.4999999 0 0 0 -0.28164,0.18758 2.5944941,2.4999998 0 0 0 -0.0548,0.0403 2.5944941,2.4999999 0 0 0 -5.1e-4,5.1e-4 2.5944941,2.4999999 0 0 0 -0.18966,0.17054 2.5944941,2.4999998 0 0 0 -0.17104,0.18706 2.5944941,2.4999999 0 0 0 -0.1509,0.20361 2.5944941,2.4999998 0 0 0 -0.12919,0.21652 2.5944941,2.4999999 0 0 0 0,5.2e-4 2.5944941,2.4999998 0 0 0 -0.10594,0.22738 2.5944941,2.4999999 0 0 0 0,5.1e-4 2.5944941,2.4999998 0 0 0 -0.0816,0.23668 2.5944941,2.4999999 0 0 0 0,5.2e-4 2.5944941,2.4999998 0 0 0 -0.0568,0.2434 2.5944941,2.4999999 0 0 0 0,5.1e-4 2.5944941,2.4999998 0 0 0 -0.031,0.24753 2.5944941,2.4999999 0 0 0 -0.007,0.17725 V 143.804 a 2.4999999,2.5944941 0 0 0 0.7214,1.81953 2.5944941,2.4999998 0 0 0 0.0625,0.0646 2.5944941,2.4999998 0 0 0 0.009,0.008 2.5944941,2.4999998 0 0 0 1.80196,0.70229 h 14.95568 a 1,1 0 0 1 0.99942,-0.98702 1,1 0 0 1 0.99942,0.98702 h 17.60099 a 1,1 0 0 1 0.99943,-0.98702 1,1 0 0 1 0.99942,0.98702 h 17.60099 a 1,1 0 0 1 0.99942,-0.98702 1,1 0 0 1 0.99943,0.98702 h 5.15627 a 2.5944941,2.4999999 0 0 0 0.29662,-0.0181 2.5944941,2.4999998 0 0 0 0.40876,-0.0786 2.5944941,2.4999999 0 0 0 0.41393,-0.15141 2.5944941,2.4999998 0 0 0 0.12454,-0.0579 2.5944941,2.4999999 0 0 0 5.2e-4,-5.2e-4 2.5944941,2.4999998 0 0 0 0.0904,-0.0532 2.5944941,2.4999999 0 0 0 0.28164,-0.18759 2.5944941,2.4999998 0 0 0 0.0548,-0.0403 2.5944941,2.4999999 0 0 0 5.2e-4,-5.2e-4 2.5944941,2.4999998 0 0 0 0.18965,-0.17054 2.5944941,2.4999998 0 0 0 0.15658,-0.17104 2.5944941,2.4999999 0 0 0 0.015,-0.0165 2.5944941,2.4999998 0 0 0 0.15038,-0.20309 2.5944941,2.4999999 0 0 0 0.12919,-0.21704 2.5944941,2.4999998 0 0 0 0.10594,-0.22738 2.5944941,2.4999999 0 0 0 0,-5.1e-4 2.5944941,2.4999998 0 0 0 0.0816,-0.23668 2.5944941,2.4999999 0 0 0 0,-5.2e-4 2.5944941,2.4999998 0 0 0 0.0568,-0.24339 2.5944941,2.4999999 0 0 0 0,-5.2e-4 2.5944941,2.4999998 0 0 0 0.031,-0.24753 2.5944941,2.4999999 0 0 0 0,-5.2e-4 2.5944941,2.4999998 0 0 0 0.007,-0.17673 v -30.90581 a 2.4999998,2.5944941 0 0 0 -0.7214,-1.81952 2.5944941,2.4999999 0 0 0 -0.0625,-0.0646 2.4999998,2.5944941 0 0 0 -0.003,-0.003 2.5944941,2.4999999 0 0 0 -0.006,-0.005 2.5944941,2.4999999 0 0 0 -1.80196,-0.70228 h -14.95568 a 1,1 0 0 1 -0.99942,0.98702 1,1 0 0 1 -0.99942,-0.98702 h -17.60099 a 1,1 0 0 1 -0.99943,0.98702 1,1 0 0 1 -0.99942,-0.98702 H 115.9327 a 1,1 0 0 1 -0.99942,0.98702 1,1 0 0 1 -0.99943,-0.98702 z m 6.15622,2.24379 a 2.2499997,1.7488676 0 0 1 2.24947,1.72599 v 8.02483 a 2.2499997,1.7488676 0 0 1 -2.25051,1.74873 2.2499997,1.7488676 0 0 1 -2.24947,-1.72599 v -8.02483 a 2.2499997,1.7488676 0 0 1 2.25051,-1.74873 z m 19.59983,0 a 2.2499997,1.7488676 0 0 1 2.24948,1.72599 v 8.02483 a 2.2499997,1.7488676 0 0 1 -2.25051,1.74873 2.2499997,1.7488676 0 0 1 -2.24947,-1.72599 v -8.02483 a 2.2499997,1.7488676 0 0 1 2.2505,-1.74873 z m 19.59984,0 a 2.2499997,1.7488676 0 0 1 2.25051,1.74873 v 8.00209 a 2.2499997,1.7488676 0 0 1 -2.25051,1.74873 2.2499997,1.7488676 0 0 1 -2.24947,-1.72599 v -8.04085 a 2.2499997,1.7488676 0 0 1 2.24947,-1.73271 z m -39.19967,12.75632 a 1,1 0 0 1 0.99994,1.00047 1,1 0 0 1 -0.99994,0.99994 1,1 0 0 1 -0.99994,-0.99994 1,1 0 0 1 0.99994,-1.00047 z m 19.59983,0 a 1,1 0 0 1 0.99994,1.00047 1,1 0 0 1 -0.99994,0.99994 1,1 0 0 1 -0.99994,-0.99994 1,1 0 0 1 0.99994,-1.00047 z m 19.59984,0 a 1,1 0 0 1 0.99994,1.00047 1,1 0 0 1 -0.99994,0.99994 1,1 0 0 1 -0.99994,-0.99994 1,1 0 0 1 0.99994,-1.00047 z m -29.40027,3.99925 a 1,1 0 0 1 0.99994,0.99994 1,1 0 0 1 -0.99994,1.00046 1,1 0 0 1 -0.99994,-1.00046 1,1 0 0 1 0.99994,-0.99994 z m 19.59984,0 a 1,1 0 0 1 0.99994,0.99994 1,1 0 0 1 -0.99994,1.00046 1,1 0 0 1 -0.99994,-1.00046 1,1 0 0 1 0.99994,-0.99994 z m 19.59983,0 a 1,1 0 0 1 0.99994,0.99994 1,1 0 0 1 -0.99994,1.00046 1,1 0 0 1 -0.99994,-1.00046 1,1 0 0 1 0.99994,-0.99994 z m -39.19967,3.25717 a 2.2499997,1.7488676 0 0 1 2.24947,1.72599 v 8.04086 a 2.2499997,1.7488676 0 0 1 -2.24947,1.7327 2.2499997,1.7488676 0 0 1 -2.25051,-1.74872 v -8.0021 a 2.2499997,1.7488676 0 0 1 2.25051,-1.74873 z m 19.60087,0 a 2.2499997,1.7488676 0 0 1 2.24947,1.72599 v 8.02484 a 2.2499997,1.7488676 0 0 1 -2.2505,1.74872 2.2499997,1.7488676 0 0 1 -2.24948,-1.72599 v -8.02483 a 2.2499997,1.7488676 0 0 1 2.25051,-1.74873 z m 19.59984,0 a 2.2499997,1.7488676 0 0 1 2.24947,1.72599 v 8.02484 a 2.2499997,1.7488676 0 0 1 -2.25051,1.74872 2.2499997,1.7488676 0 0 1 -2.24947,-1.72599 v -8.02483 a 2.2499997,1.7488676 0 0 1 2.25051,-1.74873 z"
     style="opacity:1;fill:#ff0000;fill-opacity:1;stroke:none;stroke-width:0.60000002;stroke-linecap:square;stroke-linejoin:round;stroke-miterlimit:4;stroke-dasharray:none;stroke-opacity:1" />
  <path
     id="path5797"
     d="m 18.52157,143.23613 a 2.5944941,2.4999999 0 0 0 -0.296095,0.0181 2.5944941,2.4999999 0 0 0 -0.408755,0.0785 2.5944941,2.4999999 0 0 0 -0.911066,0.45062 2.5944939,2.4999998 0 0 0 -0.05477,0.0403 2.5944941,2.4999999 0 0 0 -5.29e-4,5.2e-4 2.5944941,2.4999999 0 0 0 -0.189653,0.17053 2.5944939,2.4999998 0 0 0 -0.171054,0.18707 2.5944941,2.4999999 0 0 0 -0.150891,0.2036 2.5944939,2.4999998 0 0 0 -0.129197,0.21653 2.5944941,2.4999999 0 0 0 0,5.1e-4 2.5944939,2.4999998 0 0 0 -0.105939,0.22738 2.5944941,2.4999999 0 0 0 0,5.2e-4 2.5944939,2.4999998 0 0 0 -0.08162,0.23667 2.5944941,2.4999999 0 0 0 0,5.2e-4 2.5944939,2.4999998 0 0 0 -0.05686,0.2434 2.5944941,2.4999999 0 0 0 0,5.1e-4 2.5944939,2.4999998 0 0 0 -0.0041,0.031 2.5944939,2.4999998 0 0 0 -0.0336,0.39378 v 9.25008 12.50001 9.25008 a 2.5944941,2.5 0 0 0 0.204655,0.97359 2.5944939,2.4999998 0 0 0 0.24855,0.43821 2.5944941,2.5 0 0 0 2.140955,1.08831 2.5944939,2.4999998 0 0 0 5.29e-4,0 h 14.055982 a 1,1 0 0 1 0.999423,-0.9865 1,1 0 0 1 0.999422,0.9865 h 18.800918 a 1,1 0 0 1 0.999424,-0.9865 1,1 0 0 1 0.999421,0.9865 h 18.801437 a 1,1 0 0 1 0.999421,-0.9865 1,1 0 0 1 0.999424,0.9865 h 3.655589 a 2.594494,2.4999999 0 0 0 0.296625,-0.0181 2.5944941,2.4999998 0 0 0 0.40876,-0.0785 2.594494,2.4999999 0 0 0 0.413927,-0.15142 2.5944941,2.4999998 0 0 0 0.124539,-0.0579 2.594494,2.4999999 0 0 0 5.19e-4,-5.1e-4 2.5944941,2.4999998 0 0 0 0.09043,-0.0532 2.594494,2.4999999 0 0 0 0.281638,-0.18758 2.5944941,2.4999998 0 0 0 0.05478,-0.0403 2.594494,2.4999999 0 0 0 5.16e-4,-5.2e-4 2.5944941,2.4999998 0 0 0 0.189653,-0.17053 2.5944941,2.4999998 0 0 0 0.156578,-0.17105 2.594494,2.4999999 0 0 0 0.01499,-0.0165 2.5944941,2.4999998 0 0 0 0.150376,-0.20308 2.594494,2.4999999 0 0 0 0.129193,-0.21705 2.5944941,2.4999998 0 0 0 0.105936,-0.22737 2.594494,2.4999999 0 0 0 0,-5.2e-4 2.5944941,2.4999998 0 0 0 0.08165,-0.23668 2.594494,2.4999999 0 0 0 0,-5.1e-4 2.5944941,2.4999998 0 0 0 0.05684,-0.2434 2.594494,2.4999999 0 0 0 0,-5.2e-4 2.5944941,2.4999998 0 0 0 0.0041,-0.031 2.594494,2.4999999 0 0 0 0.03359,-0.39378 v -9.25008 -12.50001 -9.25008 a 2.594494,2.4999999 0 0 0 -2.594155,-2.50021 H 65.776571 a 1,1 0 0 1 -0.999421,0.9865 1,1 0 0 1 -0.999424,-0.9865 H 44.976807 a 1,1 0 0 1 -0.999421,0.9865 1,1 0 0 1 -0.999424,-0.9865 H 24.176528 a 1,1 0 0 1 -0.999424,0.9865 1,1 0 0 1 -0.999421,-0.9865 z m 4.655534,2.15594 a 1.5874997,1.5874997 0 0 1 1.5875,1.58751 1.5874997,1.5874997 0 0 1 -1.5875,1.5875 1.5874997,1.5874997 0 0 1 -1.5875,-1.5875 1.5874997,1.5874997 0 0 1 1.5875,-1.58751 z m 20.800282,0 a 1.5874996,1.5874996 0 0 1 1.5875,1.58751 1.5874996,1.5874996 0 0 1 -1.5875,1.5875 1.5874996,1.5874996 0 0 1 -1.5875,-1.5875 1.5874996,1.5874996 0 0 1 1.5875,-1.58751 z m 20.799764,0 a 1.5874996,1.5874996 0 0 1 1.5875,1.58751 1.5874996,1.5874996 0 0 1 -1.5875,1.5875 1.5874996,1.5874996 0 0 1 -1.5875,-1.5875 1.5874996,1.5874996 0 0 1 1.5875,-1.58751 z m -41.600046,8.49974 a 1.5874997,1.5874997 0 0 1 1.5875,1.5875 1.5874997,1.5874997 0 0 1 -1.5875,1.5875 1.5874997,1.5874997 0 0 1 -1.5875,-1.5875 1.5874997,1.5874997 0 0 1 1.5875,-1.5875 z m 20.800282,0 a 1.5874996,1.5874996 0 0 1 1.5875,1.5875 1.5874996,1.5874996 0 0 1 -1.5875,1.5875 1.5874996,1.5874996 0 0 1 -1.5875,-1.5875 1.5874996,1.5874996 0 0 1 1.5875,-1.5875 z m 20.799764,0 a 1.5874996,1.5874996 0 0 1 1.5875,1.5875 1.5874996,1.5874996 0 0 1 -1.5875,1.5875 1.5874996,1.5874996 0 0 1 -1.5875,-1.5875 1.5874996,1.5874996 0 0 1 1.5875,-1.5875 z m -41.600046,4.34444 a 1,1 0 0 1 0.99994,0.99994 1,1 0 0 1 -0.99994,0.99994 1,1 0 0 1 -0.99994,-0.99994 1,1 0 0 1 0.99994,-0.99994 z m 20.800282,0 a 1,1 0 0 1 0.999937,0.99994 1,1 0 0 1 -0.999937,0.99994 1,1 0 0 1 -0.99994,-0.99994 1,1 0 0 1 0.99994,-0.99994 z m 20.799764,0 a 1,1 0 0 1 0.999937,0.99994 1,1 0 0 1 -0.999937,0.99994 1,1 0 0 1 -0.99994,-0.99994 1,1 0 0 1 0.99994,-0.99994 z m -31.199646,4.00027 a 1,1 0 0 1 0.999938,0.99994 1,1 0 0 1 -0.999938,0.99994 1,1 0 0 1 -0.999939,-0.99994 1,1 0 0 1 0.999939,-0.99994 z m 20.799764,0 a 1,1 0 0 1 0.999937,0.99994 1,1 0 0 1 -0.999937,0.99994 1,1 0 0 1 -0.99994,-0.99994 1,1 0 0 1 0.99994,-0.99994 z m 20.800279,0 a 1,1 0 0 1 0.99994,0.99994 1,1 0 0 1 -0.99994,0.99994 1,1 0 0 1 -0.99994,-0.99994 1,1 0 0 1 0.99994,-0.99994 z m -41.600043,3.16932 a 1.5874996,1.5874996 0 0 1 1.5875,1.5875 1.5874996,1.5874996 0 0 1 -1.5875,1.5875 1.5874996,1.5874996 0 0 1 -1.5875,-1.5875 1.5874996,1.5874996 0 0 1 1.5875,-1.5875 z m 20.799764,0 a 1.5874996,1.5874996 0 0 1 1.5875,1.5875 1.5874996,1.5874996 0 0 1 -1.5875,1.5875 1.5874996,1.5874996 0 0 1 -1.5875,-1.5875 1.5874996,1.5874996 0 0 1 1.5875,-1.5875 z m 20.800279,0 a 1.5874997,1.5874997 0 0 1 1.5875,1.5875 1.5874997,1.5874997 0 0 1 -1.5875,1.5875 1.5874997,1.5874997 0 0 1 -1.5875,-1.5875 1.5874997,1.5874997 0 0 1 1.5875,-1.5875 z m -41.600043,8.49974 a 1.5874996,1.5874996 0 0 1 1.5875,1.5875 1.5874996,1.5874996 0 0 1 -1.5875,1.5875 1.5874996,1.5874996 0 0 1 -1.5875,-1.5875 1.5874996,1.5874996 0 0 1 1.5875,-1.5875 z m 20.799764,0 a 1.5874996,1.5874996 0 0 1 1.5875,1.5875 1.5874996,1.5874996 0 0 1 -1.5875,1.5875 1.5874996,1.5874996 0 0 1 -1.5875,-1.5875 1.5874996,1.5874996 0 0 1 1.5875,-1.5875 z m 20.800279,0 a 1.5874997,1.5874997 0 0 1 1.5875,1.5875 1.5874997,1.5874997 0 0 1 -1.5875,1.5875 1.5874997,1.5874997 0 0 1 -1.5875,-1.5875 1.5874997,1.5874997 0 0 1 1.5875,-1.5875 z"
     style="opacity:1;fill:#ff0000;fill-opacity:1;stroke:none;stroke-width:0.60000002;stroke-linecap:square;stroke-linejoin:round;stroke-miterlimit:4;stroke-dasharray:none;stroke-opacity:1" />
  <path
     id="rect5799"
     d="m 18.522099,100.90277 a 2.5944941,2.4999999 0 0 0 -0.296122,0.0181 2.5944941,2.4999999 0 0 0 -0.408754,0.0785 2.5944941,2.4999999 0 0 0 -0.413914,0.15142 2.5944941,2.4999998 0 0 0 -0.12454,0.0579 2.5944941,2.4999999 0 0 0 -5.29e-4,5.1e-4 2.5944941,2.4999998 0 0 0 -0.09043,0.0532 2.5944941,2.4999999 0 0 0 -0.281622,0.18759 2.5944941,2.4999998 0 0 0 -0.05479,0.0403 2.5944941,2.4999999 0 0 0 -5.03e-4,5.1e-4 2.5944941,2.4999999 0 0 0 -0.189653,0.17054 2.5944941,2.4999998 0 0 0 -0.171053,0.18706 2.5944941,2.4999999 0 0 0 -0.150892,0.20361 2.5944941,2.4999998 0 0 0 -0.129196,0.21652 2.5944941,2.4999999 0 0 0 0,5.2e-4 2.5944941,2.4999998 0 0 0 -0.10594,0.22738 2.5944941,2.4999999 0 0 0 0,5.1e-4 2.5944941,2.4999998 0 0 0 -0.08165,0.23668 2.5944941,2.4999999 0 0 0 0,5.2e-4 2.5944941,2.4999998 0 0 0 -0.05683,0.2434 2.5944941,2.4999999 0 0 0 0,5.1e-4 2.5944941,2.4999998 0 0 0 -0.03101,0.24753 2.5944941,2.4999999 0 0 0 -0.0067,0.17725 v 30.90563 a 2.4999999,2.5944941 0 0 0 0.721386,1.81952 2.5944941,2.4999998 0 0 0 0.06255,0.0646 2.5944941,2.4999998 0 0 0 0.0088,0.008 2.5944941,2.4999998 0 0 0 1.801945,0.70229 h 14.054963 a 1,1 0 0 1 0.999421,-0.98599 1,1 0 0 1 0.999424,0.98599 h 18.801434 a 1,1 0 0 1 0.999424,-0.98599 1,1 0 0 1 0.999421,0.98599 h 18.800868 a 1,1 0 0 1 0.999424,-0.98599 1,1 0 0 1 0.999421,0.98599 h 3.656624 a 2.5944941,2.4999999 0 0 0 0.296624,-0.0181 2.5944941,2.4999998 0 0 0 0.408761,-0.0785 2.5944941,2.4999999 0 0 0 0.413927,-0.15142 2.5944941,2.4999998 0 0 0 0.124542,-0.0579 2.5944941,2.4999999 0 0 0 5.16e-4,-5.1e-4 2.5944941,2.4999998 0 0 0 0.09043,-0.0532 2.5944941,2.4999999 0 0 0 0.281636,-0.18759 2.5944941,2.4999998 0 0 0 0.05478,-0.0403 2.5944941,2.4999999 0 0 0 5.16e-4,-5.1e-4 2.5944941,2.4999998 0 0 0 0.189653,-0.17054 2.5944941,2.4999998 0 0 0 0.156581,-0.17104 2.5944941,2.4999999 0 0 0 0.01499,-0.0165 2.5944941,2.4999998 0 0 0 0.150378,-0.20309 2.5944941,2.4999999 0 0 0 0.129191,-0.21704 2.5944941,2.4999998 0 0 0 0.105936,-0.22738 2.5944941,2.4999999 0 0 0 0,-5.2e-4 2.5944941,2.4999998 0 0 0 0.08165,-0.23667 2.5944941,2.4999999 0 0 0 0,-5.2e-4 2.5944941,2.4999998 0 0 0 0.05685,-0.2434 2.5944941,2.4999999 0 0 0 0,-5.1e-4 2.5944941,2.4999998 0 0 0 0.031,-0.24753 2.5944941,2.4999999 0 0 0 0,-5.2e-4 2.5944941,2.4999998 0 0 0 0.0067,-0.17673 v -30.90592 a 2.4999998,2.5944941 0 0 0 -0.721405,-1.81953 2.5944941,2.4999999 0 0 0 -0.06253,-0.0646 2.4999998,2.5944941 0 0 0 -0.0031,-0.003 2.5944941,2.4999999 0 0 0 -0.0057,-0.005 2.5944941,2.4999999 0 0 0 -1.801958,-0.70228 H 65.778121 A 1,1 0 0 1 64.7787,101.8885 1,1 0 0 1 63.779276,100.90252 H 44.977842 a 1,1 0 0 1 -0.999424,0.98604 1,1 0 0 1 -0.999421,-0.98599 H 24.178076 a 1,1 0 0 1 -0.999421,0.98599 1,1 0 0 1 -0.999422,-0.98599 z m 4.656556,2.24276 a 2.2499997,1.7488676 0 0 1 2.249474,1.72599 v 8.02484 a 2.2499997,1.7488676 0 0 1 -2.250506,1.74873 2.2499997,1.7488676 0 0 1 -2.249482,-1.72599 v -8.02484 a 2.2499997,1.7488676 0 0 1 2.250514,-1.74873 z m 20.799763,0 a 2.2499997,1.7488676 0 0 1 2.249477,1.72599 v 8.02484 a 2.2499997,1.7488676 0 0 1 -2.250509,1.74873 2.2499997,1.7488676 0 0 1 -2.249477,-1.72599 v -8.02484 a 2.2499997,1.7488676 0 0 1 2.250509,-1.74873 z m 20.800282,0 a 2.2499997,1.7488676 0 0 1 2.250509,1.74873 v 8.0021 a 2.2499997,1.7488676 0 0 1 -2.250509,1.74873 2.2499997,1.7488676 0 0 1 -2.249477,-1.72599 v -8.04086 a 2.2499997,1.7488676 0 0 1 2.249477,-1.73271 z m -41.600045,12.75634 a 1,1 0 0 1 0.999939,1.00045 1,1 0 0 1 -0.999939,0.99994 1,1 0 0 1 -0.99994,-0.99994 1,1 0 0 1 0.99994,-1.00045 z m 20.799763,0 a 1,1 0 0 1 0.99994,1.00045 1,1 0 0 1 -0.99994,0.99994 1,1 0 0 1 -0.999937,-0.99994 1,1 0 0 1 0.999937,-1.00045 z m 20.800282,0 a 1,1 0 0 1 0.999937,1.00045 1,1 0 0 1 -0.999937,0.99994 1,1 0 0 1 -0.99994,-0.99994 1,1 0 0 1 0.99994,-1.00045 z m -31.201714,4.0013 a 1,1 0 0 1 0.99994,0.99994 1,1 0 0 1 -0.99994,1.00046 1,1 0 0 1 -0.999937,-1.00046 1,1 0 0 1 0.999937,-0.99994 z m 20.800282,0 a 1,1 0 0 1 0.999937,0.99994 1,1 0 0 1 -0.999937,1.00046 1,1 0 0 1 -0.99994,-1.00046 1,1 0 0 1 0.99994,-0.99994 z m 20.799763,0 a 1,1 0 0 1 0.99994,0.99994 1,1 0 0 1 -0.99994,1.00046 1,1 0 0 1 -0.99994,-1.00046 1,1 0 0 1 0.99994,-0.99994 z m -41.600045,3.25717 a 2.2499997,1.7488676 0 0 1 2.249477,1.72599 v 8.04086 a 2.2499997,1.7488676 0 0 1 -2.249477,1.73271 2.2499997,1.7488676 0 0 1 -2.250509,-1.74873 v -8.0021 a 2.2499997,1.7488676 0 0 1 2.250509,-1.74873 z m 20.801314,0 a 2.2499997,1.7488676 0 0 1 2.249477,1.72599 v 8.02484 a 2.2499997,1.7488676 0 0 1 -2.250509,1.74873 2.2499997,1.7488676 0 0 1 -2.249477,-1.72599 v -8.02484 a 2.2499997,1.7488676 0 0 1 2.250509,-1.74873 z m 20.799763,0 a 2.2499997,1.7488676 0 0 1 2.249477,1.72599 v 8.02484 a 2.2499997,1.7488676 0 0 1 -2.250509,1.74873 2.2499997,1.7488676 0 0 1 -2.249477,-1.72599 v -8.02484 a 2.2499997,1.7488676 0 0 1 2.250509,-1.74873 z"
     style="opacity:1;fill:#ff0000;fill-opacity:1;stroke:none;stroke-width:0.60000002;stroke-linecap:square;stroke-linejoin:round;stroke-miterlimit:4;stroke-dasharray:none;stroke-opacity:1" />
  <flowRoot
     xml:space="preserve"
     id="flowRoot5493"
     style="font-style:normal;font-weight:normal;font-size:40px;line-height:1.25;font-family:sans-serif;letter-spacing:0px;word-spacing:0px;fill:#000000;fill-opacity:1;stroke:none"
     transform="matrix(0.26458333,0,0,0.26458333,-25.988448,-272.83667)"><flowRegion
       id="flowRegion5489"><rect
         id="rect5487"
         width="242.85715"
         height="52.857143"
         x="520"
         y="1203.9482" /></flowRegion><flowPara
       id="flowPara5491">standard</flowPara></flowRoot>  <flowRoot
     transform="matrix(0.26458333,0,0,0.26458333,-34.295885,-34.553229)"
     style="font-style:normal;font-weight:normal;font-size:40px;line-height:1.25;font-family:sans-serif;letter-spacing:0px;word-spacing:0px;fill:#000000;fill-opacity:1;stroke:none"
     id="flowRoot13426"
     xml:space="preserve"><flowRegion
       id="flowRegion13428"><rect
         y="277.71429"
         x="195.71428"
         height="92.85714"
         width="462.85715"
         id="rect13430" /></flowRegion><flowPara
       id="flowPara13432">f spaced</flowPara></flowRoot>  <rect
     ry="0"
     y="13.598461"
     x="16.681087"
     height="10"
     width="10"
     id="rect13442"
     style="opacity:1;fill:#ff0000;fill-opacity:1;fill-rule:nonzero;stroke:none;stroke-width:1.94105875;stroke-linecap:square;stroke-linejoin:miter;stroke-miterlimit:4;stroke-dasharray:none;stroke-dashoffset:0;stroke-opacity:1;paint-order:fill markers stroke" />
  <flowRoot
     transform="matrix(0.26458333,0,0,0.26458333,-48.51519,-35.597094)"
     style="font-style:normal;font-weight:normal;font-size:40px;line-height:1.25;font-family:sans-serif;letter-spacing:0px;word-spacing:0px;fill:#000000;fill-opacity:1;stroke:none"
     id="flowRoot13444"
     xml:space="preserve"><flowRegion
       id="flowRegion13446"><rect
         y="189.32463"
         x="302.03561"
         height="86.873116"
         width="387.89859"
         id="rect13448" /></flowRegion><flowPara
       id="flowPara13450">10 x 10 mm</flowPara></flowRoot></svg>
