<?xml version="1.0" encoding="UTF-8" standalone="no"?>
<svg
   xmlns:dc="http://purl.org/dc/elements/1.1/"
   xmlns:cc="http://creativecommons.org/ns#"
   xmlns:rdf="http://www.w3.org/1999/02/22-rdf-syntax-ns#"
   xmlns:svg="http://www.w3.org/2000/svg"
   xmlns="http://www.w3.org/2000/svg"
   id="svg8"
   version="1.1"
   viewBox="0 0 304.8 304.80001"
   height="12in"
   width="12in">
  <defs
     id="defs2">
    <marker
       id="marker5885"
       orient="auto"
       refX="0"
       refY="0"
       style="overflow:visible">
      <path
         d="M 8.72,4.03 -2.21,0.02 8.72,-4 c -1.75,2.37 -1.74,5.62 0,8.03 z"
         id="path5883"
         style="fill:#000000;fill-opacity:1;stroke:#000000;stroke-opacity:1"
         transform="matrix(-0.3,0,0,-0.3,0.69,0)" />
    </marker>
    <marker
       id="marker5881"
       orient="auto"
       refX="0"
       refY="0"
       style="overflow:visible">
      <path
         d="M 8.72,4.03 -2.21,0.02 8.72,-4 c -1.75,2.37 -1.74,5.62 0,8.03 z"
         id="path5879"
         style="fill:#000000;fill-opacity:1;stroke:#000000;stroke-opacity:1"
         transform="matrix(0.3,0,0,0.3,-0.69,0)" />
    </marker>
    <marker
       id="marker5871"
       orient="auto"
       refX="0"
       refY="0"
       style="overflow:visible">
      <path
         d="M 8.72,4.03 -2.21,0.02 8.72,-4 c -1.75,2.37 -1.74,5.62 0,8.03 z"
         id="path5869"
         style="fill:#000000;fill-opacity:1;stroke:#000000;stroke-opacity:1"
         transform="matrix(-0.3,0,0,-0.3,0.69,0)" />
    </marker>
    <marker
       id="marker5867"
       orient="auto"
       refX="0"
       refY="0"
       style="overflow:visible">
      <path
         d="M 8.72,4.03 -2.21,0.02 8.72,-4 c -1.75,2.37 -1.74,5.62 0,8.03 z"
         id="path5865"
         style="fill:#000000;fill-opacity:1;stroke:#000000;stroke-opacity:1"
         transform="matrix(0.3,0,0,0.3,-0.69,0)" />
    </marker>
    <marker
       id="marker5857"
       orient="auto"
       refX="0"
       refY="0"
       style="overflow:visible">
      <path
         d="M 8.72,4.03 -2.21,0.02 8.72,-4 c -1.75,2.37 -1.74,5.62 0,8.03 z"
         id="path5855"
         style="fill:#000000;fill-opacity:1;stroke:#000000;stroke-opacity:1"
         transform="matrix(-0.3,0,0,-0.3,0.69,0)" />
    </marker>
    <marker
       id="marker5853"
       orient="auto"
       refX="0"
       refY="0"
       style="overflow:visible">
      <path
         d="M 8.72,4.03 -2.21,0.02 8.72,-4 c -1.75,2.37 -1.74,5.62 0,8.03 z"
         id="path5851"
         style="fill:#000000;fill-opacity:1;stroke:#000000;stroke-opacity:1"
         transform="matrix(0.3,0,0,0.3,-0.69,0)" />
    </marker>
  </defs>
  <metadata
     id="metadata5">
    <rdf:RDF>
      <cc:Work
         rdf:about="">
        <dc:format>image/svg+xml</dc:format>
        <dc:type
           rdf:resource="http://purl.org/dc/dcmitype/StillImage" />
        <dc:title></dc:title>
      </cc:Work>
    </rdf:RDF>
  </metadata>
  <g
     transform="translate(0,7.8000168)"
     id="layer1">
    <path
       id="path6111"
       d="m 99.560155,101.91288 a 2.5944939,2.4999998 0 0 0 -2.594681,2.50013 v 9.25007 12.5 9.2501 a 2.5944939,2.4999998 0 0 0 2.594681,2.5001 h 14.061155 a 1,1 0 0 1 0.99425,-0.90435 1,1 0 0 1 0.99477,0.90435 h 18.81074 a 1,1 0 0 1 0.99477,-0.90435 1,1 0 0 1 0.99477,0.90435 h 18.81074 a 1,1 0 0 1 0.99426,-0.90435 1,1 0 0 1 0.99477,0.90435 h 3.66076 a 2.5944941,2.4999998 0 0 0 2.59415,-2.48666 v -9.26354 -12.5 -9.25007 a 2.5944941,2.4999999 0 0 0 -2.59415,-2.50013 z m 4.655525,11.70422 a 1,1 0 0 1 0.99994,0.99993 1,1 0 0 1 -0.99994,0.99994 1,1 0 0 1 -0.99994,-0.99994 1,1 0 0 1 0.99994,-0.99993 z m 20.79977,0 a 1,1 0 0 1 0.99993,0.99993 1,1 0 0 1 -0.99993,0.99994 1,1 0 0 1 -0.99994,-0.99994 1,1 0 0 1 0.99994,-0.99993 z m 20.80027,0 a 1,1 0 0 1 0.99994,0.99993 1,1 0 0 1 -0.99994,0.99994 1,1 0 0 1 -0.99994,-0.99994 1,1 0 0 1 0.99994,-0.99993 z m -41.60004,3.16931 a 1.5874995,1.5874995 0 0 1 1.5875,1.5875 1.5874995,1.5874995 0 0 1 -1.5875,1.5875 1.5874995,1.5874995 0 0 1 -1.5875,-1.5875 1.5874995,1.5874995 0 0 1 1.5875,-1.5875 z m 20.79977,0 a 1.5874996,1.5874996 0 0 1 1.5875,1.5875 1.5874996,1.5874996 0 0 1 -1.5875,1.5875 1.5874996,1.5874996 0 0 1 -1.5875,-1.5875 1.5874996,1.5874996 0 0 1 1.5875,-1.5875 z m 20.80027,0 a 1.5874996,1.5874996 0 0 1 1.5875,1.5875 1.5874996,1.5874996 0 0 1 -1.5875,1.5875 1.5874996,1.5874996 0 0 1 -1.5875,-1.5875 1.5874996,1.5874996 0 0 1 1.5875,-1.5875 z m -31.20016,4.20904 a 1,1 0 0 1 0.99994,0.99994 1,1 0 0 1 -0.99994,0.99994 1,1 0 0 1 -0.99994,-0.99994 1,1 0 0 1 0.99994,-0.99994 z m 20.80028,0 a 1,1 0 0 1 0.99994,0.99994 1,1 0 0 1 -0.99994,0.99994 1,1 0 0 1 -1.00045,-0.99994 1,1 0 0 1 1.00045,-0.99994 z m 20.79977,0 a 1,1 0 0 1 0.99994,0.99994 1,1 0 0 1 -0.99994,0.99994 1,1 0 0 1 -0.99994,-0.99994 1,1 0 0 1 0.99994,-0.99994 z m -41.60005,3.16931 a 1.5874996,1.5874996 0 0 1 1.5875,1.5875 1.5874996,1.5874996 0 0 1 -1.5875,1.5875 1.5874996,1.5874996 0 0 1 -1.5875,-1.5875 1.5874996,1.5874996 0 0 1 1.5875,-1.5875 z m 20.79925,0 a 1.5874996,1.5874996 0 0 1 1.5875,1.5875 1.5874996,1.5874996 0 0 1 -1.5875,1.5875 1.5874996,1.5874996 0 0 1 -1.5875,-1.5875 1.5874996,1.5874996 0 0 1 1.5875,-1.5875 z m 20.8008,0 a 1.5874997,1.5874997 0 0 1 1.5875,1.5875 1.5874997,1.5874997 0 0 1 -1.5875,1.5875 1.5874997,1.5874997 0 0 1 -1.5875,-1.5875 1.5874997,1.5874997 0 0 1 1.5875,-1.5875 z m -51.99993,1.12139 a 1.5874995,1.5874995 0 0 1 1.5875,1.5875 1.5874995,1.5874995 0 0 1 -1.5875,1.5875 1.5874995,1.5874995 0 0 1 -1.5875,-1.5875 1.5874995,1.5874995 0 0 1 1.5875,-1.5875 z m 20.79977,0 a 1.5874996,1.5874996 0 0 1 1.5875,1.5875 1.5874996,1.5874996 0 0 1 -1.5875,1.5875 1.5874996,1.5874996 0 0 1 -1.5875,-1.5875 1.5874996,1.5874996 0 0 1 1.5875,-1.5875 z m 20.80027,0 a 1.5874996,1.5874996 0 0 1 1.5875,1.5875 1.5874996,1.5874996 0 0 1 -1.5875,1.5875 1.5874996,1.5874996 0 0 1 -1.5875,-1.5875 1.5874996,1.5874996 0 0 1 1.5875,-1.5875 z m -41.60004,4.34443 a 1,1 0 0 1 0.99994,0.99994 1,1 0 0 1 -0.99994,0.99994 1,1 0 0 1 -0.99994,-0.99994 1,1 0 0 1 0.99994,-0.99994 z m 20.79977,0 a 1,1 0 0 1 0.99993,0.99994 1,1 0 0 1 -0.99993,0.99994 1,1 0 0 1 -0.99994,-0.99994 1,1 0 0 1 0.99994,-0.99994 z m 20.80027,0 a 1,1 0 0 1 0.99994,0.99994 1,1 0 0 1 -0.99994,0.99994 1,1 0 0 1 -0.99994,-0.99994 1,1 0 0 1 0.99994,-0.99994 z m -31.20016,3.03392 a 1.5874996,1.5874996 0 0 1 1.5875,1.5875 1.5874996,1.5874996 0 0 1 -1.5875,1.5875 1.5874996,1.5874996 0 0 1 -1.5875,-1.5875 1.5874996,1.5874996 0 0 1 1.5875,-1.5875 z m 20.79925,0 a 1.5874996,1.5874996 0 0 1 1.5875,1.5875 1.5874996,1.5874996 0 0 1 -1.5875,1.5875 1.5874996,1.5874996 0 0 1 -1.5875,-1.5875 1.5874996,1.5874996 0 0 1 1.5875,-1.5875 z m 20.8008,0 a 1.5874997,1.5874997 0 0 1 1.5875,1.5875 1.5874997,1.5874997 0 0 1 -1.5875,1.5875 1.5874997,1.5874997 0 0 1 -1.5875,-1.5875 1.5874997,1.5874997 0 0 1 1.5875,-1.5875 z"
       style="opacity:0.45400002;fill:#ff0000;fill-opacity:0.35680751;stroke:none;stroke-width:0.60000002;stroke-linecap:square;stroke-linejoin:round;stroke-miterlimit:4;stroke-dasharray:none;stroke-opacity:1" />
    <path
       id="path6107"
       d="m 177.57077,221.11509 a 2.5944939,2.4999998 0 0 0 -2.59467,2.5001 v 9.2501 12.5 9.25007 a 2.5944939,2.4999998 0 0 0 2.59467,2.50013 h 14.96136 a 1,1 0 0 1 0.99426,-0.90435 1,1 0 0 1 0.99477,0.90435 h 17.61132 a 1,1 0 0 1 0.99427,-0.90435 1,1 0 0 1 0.99476,0.90435 h 17.61082 a 1,1 0 0 1 0.99425,-0.90435 1,1 0 0 1 0.99476,0.90435 h 5.16043 a 2.5944941,2.4999998 0 0 0 2.59413,-2.48669 v -9.26351 -12.5 -9.2501 a 2.5944941,2.4999999 0 0 0 -2.59413,-2.5001 z m 6.1557,11.70418 a 1,1 0 0 1 0.99994,0.99994 1,1 0 0 1 -0.99994,0.99994 1,1 0 0 1 -0.99994,-0.99994 1,1 0 0 1 0.99994,-0.99994 z m 19.60036,0 a 1,1 0 0 1 0.99993,0.99994 1,1 0 0 1 -0.99993,0.99994 1,1 0 0 1 -0.99994,-0.99994 1,1 0 0 1 0.99994,-0.99994 z m 19.59983,0 a 1,1 0 0 1 0.99994,0.99994 1,1 0 0 1 -0.99994,0.99994 1,1 0 0 1 -0.99994,-0.99994 1,1 0 0 1 0.99994,-0.99994 z m -39.20019,3.16934 a 1.5874995,1.5874995 0 0 1 1.5875,1.5875 1.5874995,1.5874995 0 0 1 -1.5875,1.5875 1.5874995,1.5874995 0 0 1 -1.5875,-1.5875 1.5874995,1.5874995 0 0 1 1.5875,-1.5875 z m 19.60036,0 a 1.5874996,1.5874996 0 0 1 1.5875,1.5875 1.5874996,1.5874996 0 0 1 -1.5875,1.5875 1.5874996,1.5874996 0 0 1 -1.5875,-1.5875 1.5874996,1.5874996 0 0 1 1.5875,-1.5875 z m 19.59983,0 a 1.5874996,1.5874996 0 0 1 1.5875,1.5875 1.5874996,1.5874996 0 0 1 -1.5875,1.5875 1.5874996,1.5874996 0 0 1 -1.5875,-1.5875 1.5874996,1.5874996 0 0 1 1.5875,-1.5875 z m -29.40027,4.20905 a 1,1 0 0 1 0.99994,0.99994 1,1 0 0 1 -0.99994,0.99991 1,1 0 0 1 -0.99994,-0.99991 1,1 0 0 1 0.99994,-0.99994 z m 19.60036,0 a 1,1 0 0 1 0.99994,0.99994 1,1 0 0 1 -0.99994,0.99991 1,1 0 0 1 -0.99994,-0.99991 1,1 0 0 1 0.99994,-0.99994 z m 19.59983,0 a 1,1 0 0 1 0.99994,0.99994 1,1 0 0 1 -0.99994,0.99991 1,1 0 0 1 -0.99994,-0.99991 1,1 0 0 1 0.99994,-0.99994 z m -39.20019,3.16931 a 1.5874996,1.5874996 0 0 1 1.5875,1.5875 1.5874996,1.5874996 0 0 1 -1.5875,1.5875 1.5874996,1.5874996 0 0 1 -1.5875,-1.5875 1.5874996,1.5874996 0 0 1 1.5875,-1.5875 z m 19.59983,0 a 1.5874996,1.5874996 0 0 1 1.5875,1.5875 1.5874996,1.5874996 0 0 1 -1.5875,1.5875 1.5874996,1.5874996 0 0 1 -1.5875,-1.5875 1.5874996,1.5874996 0 0 1 1.5875,-1.5875 z m 19.60036,0 a 1.5874997,1.5874997 0 0 1 1.5875,1.5875 1.5874997,1.5874997 0 0 1 -1.5875,1.5875 1.5874997,1.5874997 0 0 1 -1.5875,-1.5875 1.5874997,1.5874997 0 0 1 1.5875,-1.5875 z m -49.00011,1.12138 a 1.5874995,1.5874995 0 0 1 1.5875,1.5875 1.5874995,1.5874995 0 0 1 -1.5875,1.5875 1.5874995,1.5874995 0 0 1 -1.5875,-1.5875 1.5874995,1.5874995 0 0 1 1.5875,-1.5875 z m 19.60036,0 a 1.5874996,1.5874996 0 0 1 1.5875,1.5875 1.5874996,1.5874996 0 0 1 -1.5875,1.5875 1.5874996,1.5874996 0 0 1 -1.5875,-1.5875 1.5874996,1.5874996 0 0 1 1.5875,-1.5875 z m 19.59983,0 a 1.5874996,1.5874996 0 0 1 1.5875,1.5875 1.5874996,1.5874996 0 0 1 -1.5875,1.5875 1.5874996,1.5874996 0 0 1 -1.5875,-1.5875 1.5874996,1.5874996 0 0 1 1.5875,-1.5875 z m -39.20019,4.34443 a 1,1 0 0 1 0.99994,0.99994 1,1 0 0 1 -0.99994,0.99994 1,1 0 0 1 -0.99994,-0.99994 1,1 0 0 1 0.99994,-0.99994 z m 19.60036,0 a 1,1 0 0 1 0.99993,0.99994 1,1 0 0 1 -0.99993,0.99994 1,1 0 0 1 -0.99994,-0.99994 1,1 0 0 1 0.99994,-0.99994 z m 19.59983,0 a 1,1 0 0 1 0.99994,0.99994 1,1 0 0 1 -0.99994,0.99994 1,1 0 0 1 -0.99994,-0.99994 1,1 0 0 1 0.99994,-0.99994 z m -29.40027,3.03393 a 1.5874996,1.5874996 0 0 1 1.5875,1.5875 1.5874996,1.5874996 0 0 1 -1.5875,1.5875 1.5874996,1.5874996 0 0 1 -1.5875,-1.5875 1.5874996,1.5874996 0 0 1 1.5875,-1.5875 z m 19.59983,0 a 1.5874996,1.5874996 0 0 1 1.5875,1.5875 1.5874996,1.5874996 0 0 1 -1.5875,1.5875 1.5874996,1.5874996 0 0 1 -1.5875,-1.5875 1.5874996,1.5874996 0 0 1 1.5875,-1.5875 z m 19.60036,0 a 1.5874997,1.5874997 0 0 1 1.5875,1.5875 1.5874997,1.5874997 0 0 1 -1.5875,1.5875 1.5874997,1.5874997 0 0 1 -1.5875,-1.5875 1.5874997,1.5874997 0 0 1 1.5875,-1.5875 z"
       style="opacity:0.45400002;fill:#ff0000;fill-opacity:0.35680751;stroke:none;stroke-width:0.60000002;stroke-linecap:square;stroke-linejoin:round;stroke-miterlimit:4;stroke-dasharray:none;stroke-opacity:1" />
    <path
       id="path6113"
       d="m 99.560155,55.329667 a 2.5944941,2.4999999 0 0 0 -2.594681,2.500102 V 88.82944 a 2.5944941,2.4999999 0 0 0 2.594681,2.5001 h 14.060635 a 1,1 0 0 1 0.99426,-0.90435 1,1 0 0 1 0.99477,0.90435 h 18.81125 a 1,1 0 0 1 0.99426,-0.90435 1,1 0 0 1 0.99477,0.90435 h 18.81073 a 1,1 0 0 1 0.99426,-0.90435 1,1 0 0 1 0.99477,0.90435 h 3.66128 a 2.5944941,2.4999999 0 0 0 2.59415,-2.5001 V 57.923829 a 2.4999999,2.5944941 0 0 0 -2.5001,-2.594162 z m 4.655005,11.703683 a 1,1 0 0 1 0.99994,0.99994 1,1 0 0 1 -0.99994,1.00044 1,1 0 0 1 -0.99994,-1.00044 1,1 0 0 1 0.99994,-0.99994 z m 20.80029,0 a 1,1 0 0 1 0.99993,0.99994 1,1 0 0 1 -0.99993,1.00044 1,1 0 0 1 -0.99994,-1.00044 1,1 0 0 1 0.99994,-0.99994 z m 20.79976,0 a 1,1 0 0 1 0.99994,0.99994 1,1 0 0 1 -0.99994,1.00044 1,1 0 0 1 -0.99994,-1.00044 1,1 0 0 1 0.99994,-0.99994 z M 104.2162,70.29 a 2.2499997,1.7488676 0 0 1 2.24947,1.72599 v 8.02534 a 2.2499997,1.7488676 0 0 1 -2.25051,1.74873 2.2499997,1.7488676 0 0 1 -2.24947,-1.72598 V 72.03871 A 2.2499997,1.7488676 0 0 1 104.2162,70.29 Z m 20.80028,0 a 2.2499997,1.7488676 0 0 1 2.24947,1.72599 v 8.02534 a 2.2499997,1.7488676 0 0 1 -2.2505,1.74873 2.2499997,1.7488676 0 0 1 -2.24948,-1.72598 V 72.03871 A 2.2499997,1.7488676 0 0 1 125.01648,70.29 Z m 20.79976,0 a 2.2499997,1.7488676 0 0 1 2.24948,1.72599 v 8.02534 a 2.2499997,1.7488676 0 0 1 -2.25051,1.74873 2.2499997,1.7488676 0 0 1 -2.24948,-1.72598 V 72.03871 A 2.2499997,1.7488676 0 0 1 145.81624,70.29 Z m -31.20119,4.12171 a 1,1 0 0 1 0.99993,0.99994 1,1 0 0 1 -0.99993,1.00044 1,1 0 0 1 -0.99994,-1.00044 1,1 0 0 1 0.99994,-0.99994 z m 20.80028,0 a 1,1 0 0 1 0.99993,0.99994 1,1 0 0 1 -0.99993,1.00044 1,1 0 0 1 -0.99994,-1.00044 1,1 0 0 1 0.99994,-0.99994 z m 20.79976,0 a 1,1 0 0 1 0.99994,0.99994 1,1 0 0 1 -0.99994,1.00044 1,1 0 0 1 -0.99994,-1.00044 1,1 0 0 1 0.99994,-0.99994 z m -41.60004,3.25715 a 2.2499997,1.7488676 0 0 1 2.24947,1.72601 v 8.04085 a 2.2499997,1.7488676 0 0 1 -2.24947,1.7327 2.2499997,1.7488676 0 0 1 -2.25051,-1.74874 V 79.4176 a 2.2499997,1.7488676 0 0 1 2.25051,-1.74874 z m 20.80131,0 a 2.2499997,1.7488676 0 0 1 2.24948,1.72601 v 8.02481 a 2.2499997,1.7488676 0 0 1 -2.25051,1.74874 2.2499997,1.7488676 0 0 1 -2.24948,-1.72598 V 79.4176 a 2.2499997,1.7488676 0 0 1 2.25051,-1.74874 z m 20.79976,0 a 2.2499997,1.7488676 0 0 1 2.24948,1.72601 v 8.02481 a 2.2499997,1.7488676 0 0 1 -2.25051,1.74874 2.2499997,1.7488676 0 0 1 -2.24948,-1.72598 V 79.4176 a 2.2499997,1.7488676 0 0 1 2.25051,-1.74874 z m -52.00096,5.37798 a 1,1 0 0 1 0.99994,0.99993 1,1 0 0 1 -0.99994,0.99994 1,1 0 0 1 -0.99994,-0.99994 1,1 0 0 1 0.99994,-0.99993 z m 20.80029,0 a 1,1 0 0 1 0.99993,0.99993 1,1 0 0 1 -0.99993,0.99994 1,1 0 0 1 -0.99994,-0.99994 1,1 0 0 1 0.99994,-0.99993 z m 20.79976,0 a 1,1 0 0 1 0.99994,0.99993 1,1 0 0 1 -0.99994,0.99994 1,1 0 0 1 -0.99994,-0.99994 1,1 0 0 1 0.99994,-0.99993 z"
       style="opacity:0.45400002;fill:#ff0000;fill-opacity:0.35680751;stroke:none;stroke-width:0.60000002;stroke-linecap:square;stroke-linejoin:round;stroke-miterlimit:4;stroke-dasharray:none;stroke-opacity:1" />
    <path
       id="path6109"
       d="m 177.57076,174.53187 a 2.5944941,2.4999999 0 0 0 -2.59467,2.5001 v 30.99966 a 2.5944941,2.4999999 0 0 0 2.59467,2.50012 h 14.96084 a 1,1 0 0 1 0.99426,-0.90434 1,1 0 0 1 0.99477,0.90434 h 17.61081 a 1,1 0 0 1 0.99425,-0.90434 1,1 0 0 1 0.99478,0.90434 h 17.6108 a 1,1 0 0 1 0.99425,-0.90434 1,1 0 0 1 0.99479,0.90434 h 5.16143 a 2.5944941,2.4999999 0 0 0 2.59416,-2.50012 v -30.90562 a 2.4999999,2.5944941 0 0 0 -2.5001,-2.59414 z m 6.15466,11.70367 a 1,1 0 0 1 0.99994,0.99994 1,1 0 0 1 -0.99994,1.00047 1,1 0 0 1 -0.99993,-1.00047 1,1 0 0 1 0.99993,-0.99994 z m 19.60035,0 a 1,1 0 0 1 0.99994,0.99994 1,1 0 0 1 -0.99994,1.00047 1,1 0 0 1 -0.99994,-1.00047 1,1 0 0 1 0.99994,-0.99994 z m 19.59985,0 a 1,1 0 0 1 0.99994,0.99994 1,1 0 0 1 -0.99994,1.00047 1,1 0 0 1 -0.99994,-1.00047 1,1 0 0 1 0.99994,-0.99994 z m -39.19916,3.25665 a 2.2499997,1.7488676 0 0 1 2.24947,1.72601 v 8.02534 a 2.2499997,1.7488676 0 0 1 -2.25051,1.74874 2.2499997,1.7488676 0 0 1 -2.24947,-1.72601 v -8.02534 a 2.2499997,1.7488676 0 0 1 2.25051,-1.74874 z m 19.60034,0 a 2.2499997,1.7488676 0 0 1 2.24949,1.72601 v 8.02534 a 2.2499997,1.7488676 0 0 1 -2.25052,1.74874 2.2499997,1.7488676 0 0 1 -2.24947,-1.72601 v -8.02534 a 2.2499997,1.7488676 0 0 1 2.2505,-1.74874 z m 19.59985,0 a 2.2499997,1.7488676 0 0 1 2.24947,1.72601 v 8.02534 a 2.2499997,1.7488676 0 0 1 -2.2505,1.74874 2.2499997,1.7488676 0 0 1 -2.24948,-1.72601 v -8.02534 a 2.2499997,1.7488676 0 0 1 2.25051,-1.74874 z m -29.40079,4.12173 a 1,1 0 0 1 0.99994,0.99994 1,1 0 0 1 -0.99994,1.00045 1,1 0 0 1 -0.99994,-1.00045 1,1 0 0 1 0.99994,-0.99994 z m 19.59983,0 a 1,1 0 0 1 0.99994,0.99994 1,1 0 0 1 -0.99994,1.00045 1,1 0 0 1 -0.99994,-1.00045 1,1 0 0 1 0.99994,-0.99994 z m 19.59983,0 a 1,1 0 0 1 0.99994,0.99994 1,1 0 0 1 -0.99994,1.00045 1,1 0 0 1 -0.99994,-1.00045 1,1 0 0 1 0.99994,-0.99994 z m -39.19966,3.25716 a 2.2499997,1.7488676 0 0 1 2.24947,1.72598 v 8.04087 a 2.2499997,1.7488676 0 0 1 -2.24947,1.73271 2.2499997,1.7488676 0 0 1 -2.25051,-1.74874 v -8.00209 a 2.2499997,1.7488676 0 0 1 2.25051,-1.74873 z m 19.60087,0 a 2.2499997,1.7488676 0 0 1 2.24948,1.72598 v 8.02484 a 2.2499997,1.7488676 0 0 1 -2.25052,1.74874 2.2499997,1.7488676 0 0 1 -2.24948,-1.72599 v -8.02484 a 2.2499997,1.7488676 0 0 1 2.25052,-1.74873 z m 19.59983,0 a 2.2499997,1.7488676 0 0 1 2.24948,1.72598 v 8.02484 a 2.2499997,1.7488676 0 0 1 -2.25052,1.74874 2.2499997,1.7488676 0 0 1 -2.24946,-1.72599 v -8.02484 a 2.2499997,1.7488676 0 0 1 2.2505,-1.74873 z m -49.00114,5.37797 a 1,1 0 0 1 0.99994,0.99994 1,1 0 0 1 -0.99994,0.99994 1,1 0 0 1 -0.99993,-0.99994 1,1 0 0 1 0.99993,-0.99994 z m 19.60035,0 a 1,1 0 0 1 0.99994,0.99994 1,1 0 0 1 -0.99994,0.99994 1,1 0 0 1 -0.99994,-0.99994 1,1 0 0 1 0.99994,-0.99994 z m 19.59985,0 a 1,1 0 0 1 0.99994,0.99994 1,1 0 0 1 -0.99994,0.99994 1,1 0 0 1 -0.99994,-0.99994 1,1 0 0 1 0.99994,-0.99994 z"
       style="opacity:0.45400002;fill:#ff0000;fill-opacity:0.35680751;stroke:none;stroke-width:0.60000002;stroke-linecap:square;stroke-linejoin:round;stroke-miterlimit:4;stroke-dasharray:none;stroke-opacity:1" />
    <path
       id="path6103"
       d="m 103.51143,221.11509 a 2.594494,2.4999999 0 0 0 -2.59468,2.5001 v 9.25007 12.50003 9.25007 a 2.594494,2.4999999 0 0 0 2.59468,2.5001 h 14.95671 a 1,1 0 0 1 0.99942,-0.9865 1,1 0 0 1 0.99942,0.9865 h 17.60098 a 1,1 0 0 1 0.99944,-0.9865 1,1 0 0 1 0.99941,0.9865 h 17.60101 a 1,1 0 0 1 0.99941,-0.9865 1,1 0 0 1 0.99944,0.9865 h 5.15575 a 2.5944941,2.4999999 0 0 0 2.59416,-2.48666 v -9.26351 -12.50003 -9.25007 a 2.5944941,2.5 0 0 0 -2.59416,-2.5001 z m 6.15569,2.98688 a 1,1 0 0 1 0.99994,0.99994 1,1 0 0 1 -0.99994,0.99994 1,1 0 0 1 -0.99994,-0.99994 1,1 0 0 1 0.99994,-0.99994 z m 19.60035,0 a 1,1 0 0 1 0.99994,0.99994 1,1 0 0 1 -0.99994,0.99994 1,1 0 0 1 -0.99994,-0.99994 1,1 0 0 1 0.99994,-0.99994 z m 19.59983,0 a 1,1 0 0 1 0.99994,0.99994 1,1 0 0 1 -0.99994,0.99994 1,1 0 0 1 -0.99994,-0.99994 1,1 0 0 1 0.99994,-0.99994 z m -39.20018,3.16934 a 1.5874995,1.5874995 0 0 1 1.5875,1.5875 1.5874995,1.5874995 0 0 1 -1.5875,1.5875 1.5874995,1.5874995 0 0 1 -1.5875,-1.5875 1.5874995,1.5874995 0 0 1 1.5875,-1.5875 z m 19.60035,0 a 1.5874996,1.5874996 0 0 1 1.5875,1.5875 1.5874996,1.5874996 0 0 1 -1.5875,1.5875 1.5874996,1.5874996 0 0 1 -1.58749,-1.5875 1.5874996,1.5874996 0 0 1 1.58749,-1.5875 z m 19.59983,0 a 1.5874996,1.5874996 0 0 1 1.5875,1.5875 1.5874996,1.5874996 0 0 1 -1.5875,1.5875 1.5874996,1.5874996 0 0 1 -1.5875,-1.5875 1.5874996,1.5874996 0 0 1 1.5875,-1.5875 z m -39.20018,8.49974 a 1.5874995,1.5874995 0 0 1 1.5875,1.5875 1.5874995,1.5874995 0 0 1 -1.5875,1.5875 1.5874995,1.5874995 0 0 1 -1.5875,-1.5875 1.5874995,1.5874995 0 0 1 1.5875,-1.5875 z m 19.60035,0 a 1.5874996,1.5874996 0 0 1 1.5875,1.5875 1.5874996,1.5874996 0 0 1 -1.5875,1.5875 1.5874996,1.5874996 0 0 1 -1.58749,-1.5875 1.5874996,1.5874996 0 0 1 1.58749,-1.5875 z m 19.59983,0 a 1.5874996,1.5874996 0 0 1 1.5875,1.5875 1.5874996,1.5874996 0 0 1 -1.5875,1.5875 1.5874996,1.5874996 0 0 1 -1.5875,-1.5875 1.5874996,1.5874996 0 0 1 1.5875,-1.5875 z m -39.20018,4.34443 a 1,1 0 0 1 0.99994,0.99994 1,1 0 0 1 -0.99994,0.99994 1,1 0 0 1 -0.99994,-0.99994 1,1 0 0 1 0.99994,-0.99994 z m 9.80044,0 a 1,1 0 0 1 0.99994,0.99994 1,1 0 0 1 -0.99994,0.99994 1,1 0 0 1 -0.99994,-0.99994 1,1 0 0 1 0.99994,-0.99994 z m 9.79991,0 a 1,1 0 0 1 0.99994,0.99994 1,1 0 0 1 -0.99994,0.99994 1,1 0 0 1 -0.99994,-0.99994 1,1 0 0 1 0.99994,-0.99994 z m 9.79993,0 a 1,1 0 0 1 0.99994,0.99994 1,1 0 0 1 -0.99994,0.99994 1,1 0 0 1 -0.99994,-0.99994 1,1 0 0 1 0.99994,-0.99994 z m 9.7999,0 a 1,1 0 0 1 0.99994,0.99994 1,1 0 0 1 -0.99994,0.99994 1,1 0 0 1 -0.99994,-0.99994 1,1 0 0 1 0.99994,-0.99994 z m 9.79993,0 a 1,1 0 0 1 0.99994,0.99994 1,1 0 0 1 -0.99994,0.99994 1,1 0 0 1 -0.99994,-0.99994 1,1 0 0 1 0.99994,-0.99994 z m -39.19967,3.16931 a 1.5874996,1.5874996 0 0 1 1.5875,1.5875 1.5874996,1.5874996 0 0 1 -1.5875,1.5875 1.5874996,1.5874996 0 0 1 -1.5875,-1.5875 1.5874996,1.5874996 0 0 1 1.5875,-1.5875 z m 19.59931,0 a 1.5874996,1.5874996 0 0 1 1.5875,1.5875 1.5874996,1.5874996 0 0 1 -1.5875,1.5875 1.5874996,1.5874996 0 0 1 -1.5875,-1.5875 1.5874996,1.5874996 0 0 1 1.5875,-1.5875 z m 19.60036,0 a 1.5874997,1.5874997 0 0 1 1.5875,1.5875 1.5874997,1.5874997 0 0 1 -1.5875,1.5875 1.5874997,1.5874997 0 0 1 -1.5875,-1.5875 1.5874997,1.5874997 0 0 1 1.5875,-1.5875 z m -39.19967,8.49974 a 1.5874996,1.5874996 0 0 1 1.5875,1.5875 1.5874996,1.5874996 0 0 1 -1.5875,1.5875 1.5874996,1.5874996 0 0 1 -1.5875,-1.5875 1.5874996,1.5874996 0 0 1 1.5875,-1.5875 z m 19.59931,0 a 1.5874996,1.5874996 0 0 1 1.5875,1.5875 1.5874996,1.5874996 0 0 1 -1.5875,1.5875 1.5874996,1.5874996 0 0 1 -1.5875,-1.5875 1.5874996,1.5874996 0 0 1 1.5875,-1.5875 z m 19.60036,0 a 1.5874997,1.5874997 0 0 1 1.5875,1.5875 1.5874997,1.5874997 0 0 1 -1.5875,1.5875 1.5874997,1.5874997 0 0 1 -1.5875,-1.5875 1.5874997,1.5874997 0 0 1 1.5875,-1.5875 z"
       style="opacity:0.45400002;fill:#ff0000;fill-opacity:0.35680751;stroke:none;stroke-width:0.60000002;stroke-linecap:square;stroke-linejoin:round;stroke-miterlimit:4;stroke-dasharray:none;stroke-opacity:1" />
    <path
       id="path6105"
       d="m 103.51142,174.53187 a 2.5944941,2.4999999 0 0 0 -2.59467,2.5001 v 30.99965 a 2.5944941,2.4999999 0 0 0 2.59467,2.50013 h 14.95568 a 1,1 0 0 1 0.99942,-0.98703 1,1 0 0 1 0.99943,0.98703 h 17.60099 a 1,1 0 0 1 0.99941,-0.98703 1,1 0 0 1 0.99944,0.98703 h 17.60098 a 1,1 0 0 1 0.99944,-0.98703 1,1 0 0 1 0.99941,0.98703 h 5.15678 a 2.5944941,2.4999999 0 0 0 2.59416,-2.50013 V 177.126 a 2.4999999,2.5944941 0 0 0 -2.5001,-2.59413 z m 6.15467,2.98638 a 1,1 0 0 1 0.99994,0.99994 1,1 0 0 1 -0.99994,1.00044 1,1 0 0 1 -0.99994,-1.00044 1,1 0 0 1 0.99994,-0.99994 z m 19.60036,0 a 1,1 0 0 1 0.99994,0.99994 1,1 0 0 1 -0.99994,1.00044 1,1 0 0 1 -0.99994,-1.00044 1,1 0 0 1 0.99994,-0.99994 z m 19.59983,0 a 1,1 0 0 1 0.99994,0.99994 1,1 0 0 1 -0.99994,1.00044 1,1 0 0 1 -0.99994,-1.00044 1,1 0 0 1 0.99994,-0.99994 z m -39.19916,3.25666 a 2.2499997,1.7488676 0 0 1 2.24948,1.72598 v 8.02534 a 2.2499997,1.7488676 0 0 1 -2.25051,1.74874 2.2499997,1.7488676 0 0 1 -2.24948,-1.72598 v -8.02537 a 2.2499997,1.7488676 0 0 1 2.25051,-1.74871 z m 19.60036,0 a 2.2499997,1.7488676 0 0 1 2.24946,1.72598 v 8.02534 a 2.2499997,1.7488676 0 0 1 -2.25049,1.74874 2.2499997,1.7488676 0 0 1 -2.24949,-1.72598 v -8.02537 a 2.2499997,1.7488676 0 0 1 2.25052,-1.74871 z m 19.59983,0 a 2.2499997,1.7488676 0 0 1 2.24949,1.72598 v 8.02534 a 2.2499997,1.7488676 0 0 1 -2.25052,1.74874 2.2499997,1.7488676 0 0 1 -2.24946,-1.72598 v -8.02537 a 2.2499997,1.7488676 0 0 1 2.25049,-1.74871 z m -29.40079,12.75633 a 1,1 0 0 1 0.99994,0.99994 1,1 0 0 1 -0.99994,1.00044 1,1 0 0 1 -0.99994,-1.00044 1,1 0 0 1 0.99994,-0.99994 z m 19.59983,0 a 1,1 0 0 1 0.99994,0.99994 1,1 0 0 1 -0.99994,1.00044 1,1 0 0 1 -0.99994,-1.00044 1,1 0 0 1 0.99994,-0.99994 z m 19.59986,0 a 1,1 0 0 1 0.99994,0.99994 1,1 0 0 1 -0.99994,1.00044 1,1 0 0 1 -0.99994,-1.00044 1,1 0 0 1 0.99994,-0.99994 z m -49.00012,5e-4 a 1,1 0 0 1 0.99994,0.99994 1,1 0 0 1 -0.99994,0.99994 1,1 0 0 1 -0.99994,-0.99994 1,1 0 0 1 0.99994,-0.99994 z m 19.60036,0 a 1,1 0 0 1 0.99994,0.99994 1,1 0 0 1 -0.99994,0.99994 1,1 0 0 1 -0.99994,-0.99994 1,1 0 0 1 0.99994,-0.99994 z m 19.59983,0 a 1,1 0 0 1 0.99994,0.99994 1,1 0 0 1 -0.99994,0.99994 1,1 0 0 1 -0.99994,-0.99994 1,1 0 0 1 0.99994,-0.99994 z m -29.39976,3.25665 a 2.2499997,1.7488676 0 0 1 2.24948,1.72598 v 8.04087 a 2.2499997,1.7488676 0 0 1 -2.24948,1.73271 2.2499997,1.7488676 0 0 1 -2.2505,-1.74874 v -8.00208 a 2.2499997,1.7488676 0 0 1 2.2505,-1.74874 z m 19.60086,0 a 2.2499997,1.7488676 0 0 1 2.24949,1.72598 v 8.02484 a 2.2499997,1.7488676 0 0 1 -2.25052,1.74874 2.2499997,1.7488676 0 0 1 -2.24946,-1.72598 v -8.02484 a 2.2499997,1.7488676 0 0 1 2.25049,-1.74874 z m 19.59986,0 a 2.2499997,1.7488676 0 0 1 2.24946,1.72598 v 8.02484 a 2.2499997,1.7488676 0 0 1 -2.25049,1.74874 2.2499997,1.7488676 0 0 1 -2.24949,-1.72598 v -8.02484 a 2.2499997,1.7488676 0 0 1 2.25052,-1.74874 z"
       style="opacity:0.45400002;fill:#ff0000;fill-opacity:0.35680751;stroke:none;stroke-width:0.60000002;stroke-linecap:square;stroke-linejoin:round;stroke-miterlimit:4;stroke-dasharray:none;stroke-opacity:1" />
    <path
       id="path5797"
       d="m 24.012924,101.91288 a 2.594494,2.4999999 0 0 0 -2.594674,2.5001 v 9.25007 12.50003 9.25007 a 2.594494,2.4999999 0 0 0 2.594674,2.5001 H 38.06892 a 1,1 0 0 1 0.99942,-0.9865 1,1 0 0 1 0.99942,0.9865 h 18.800918 a 1,1 0 0 1 0.99943,-0.9865 1,1 0 0 1 0.99942,0.9865 h 18.801428 a 1,1 0 0 1 0.99942,-0.9865 1,1 0 0 1 0.99942,0.9865 h 3.656107 a 2.5944941,2.4999999 0 0 0 2.59415,-2.48666 v -9.26351 -12.50003 -9.25007 a 2.5944941,2.5 0 0 0 -2.59415,-2.5001 z m 4.655531,2.98688 a 1,1 0 0 1 0.999937,0.99994 1,1 0 0 1 -0.999937,0.99994 1,1 0 0 1 -0.999939,-0.99994 1,1 0 0 1 0.999939,-0.99994 z m 20.799779,0 a 1,1 0 0 1 0.99993,0.99994 1,1 0 0 1 -0.99993,0.99994 1,1 0 0 1 -0.99994,-0.99994 1,1 0 0 1 0.99994,-0.99994 z m 20.800268,0 a 1,1 0 0 1 0.99993,0.99994 1,1 0 0 1 -0.99993,0.99994 1,1 0 0 1 -0.99994,-0.99994 1,1 0 0 1 0.99994,-0.99994 z m -41.600047,3.16931 a 1.5874995,1.5874995 0 0 1 1.587506,1.5875 1.5874995,1.5874995 0 0 1 -1.587506,1.5875 1.5874995,1.5874995 0 0 1 -1.5875,-1.5875 1.5874995,1.5874995 0 0 1 1.5875,-1.5875 z m 20.799779,0 a 1.5874996,1.5874996 0 0 1 1.5875,1.5875 1.5874996,1.5874996 0 0 1 -1.5875,1.5875 1.5874996,1.5874996 0 0 1 -1.5875,-1.5875 1.5874996,1.5874996 0 0 1 1.5875,-1.5875 z m 20.800268,0 a 1.5874996,1.5874996 0 0 1 1.5875,1.5875 1.5874996,1.5874996 0 0 1 -1.5875,1.5875 1.5874996,1.5874996 0 0 1 -1.5875,-1.5875 1.5874996,1.5874996 0 0 1 1.5875,-1.5875 z m -41.600047,8.49974 a 1.5874995,1.5874995 0 0 1 1.587506,1.5875 1.5874995,1.5874995 0 0 1 -1.587506,1.5875 1.5874995,1.5874995 0 0 1 -1.5875,-1.5875 1.5874995,1.5874995 0 0 1 1.5875,-1.5875 z m 20.799779,0 a 1.5874996,1.5874996 0 0 1 1.5875,1.5875 1.5874996,1.5874996 0 0 1 -1.5875,1.5875 1.5874996,1.5874996 0 0 1 -1.5875,-1.5875 1.5874996,1.5874996 0 0 1 1.5875,-1.5875 z m 20.800268,0 a 1.5874996,1.5874996 0 0 1 1.5875,1.5875 1.5874996,1.5874996 0 0 1 -1.5875,1.5875 1.5874996,1.5874996 0 0 1 -1.5875,-1.5875 1.5874996,1.5874996 0 0 1 1.5875,-1.5875 z m -41.600047,4.34446 a 1,1 0 0 1 0.999937,0.99994 1,1 0 0 1 -0.999937,0.99994 1,1 0 0 1 -0.999939,-0.99994 1,1 0 0 1 0.999939,-0.99994 z m 10.399885,0 a 1,1 0 0 1 0.99994,0.99994 1,1 0 0 1 -0.99994,0.99994 1,1 0 0 1 -0.99994,-0.99994 1,1 0 0 1 0.99994,-0.99994 z m 10.399894,0 a 1,1 0 0 1 0.99993,0.99994 1,1 0 0 1 -0.99993,0.99994 1,1 0 0 1 -0.99994,-0.99994 1,1 0 0 1 0.99994,-0.99994 z m 10.399874,0 a 1,1 0 0 1 0.99993,0.99994 1,1 0 0 1 -0.99993,0.99994 1,1 0 0 1 -0.99994,-0.99994 1,1 0 0 1 0.99994,-0.99994 z m 10.400394,0 a 1,1 0 0 1 0.99993,0.99994 1,1 0 0 1 -0.99993,0.99994 1,1 0 0 1 -0.99994,-0.99994 1,1 0 0 1 0.99994,-0.99994 z m 10.399874,0 a 1,1 0 0 1 0.99994,0.99994 1,1 0 0 1 -0.99994,0.99994 1,1 0 0 1 -0.99994,-0.99994 1,1 0 0 1 0.99994,-0.99994 z m -41.600036,3.16931 a 1.5874996,1.5874996 0 0 1 1.587497,1.5875 1.5874996,1.5874996 0 0 1 -1.587497,1.5875 1.5874996,1.5874996 0 0 1 -1.5875,-1.5875 1.5874996,1.5874996 0 0 1 1.5875,-1.5875 z m 20.799768,0 a 1.5874996,1.5874996 0 0 1 1.5875,1.5875 1.5874996,1.5874996 0 0 1 -1.5875,1.5875 1.5874996,1.5874996 0 0 1 -1.5875,-1.5875 1.5874996,1.5874996 0 0 1 1.5875,-1.5875 z m 20.800268,0 a 1.5874997,1.5874997 0 0 1 1.5875,1.5875 1.5874997,1.5874997 0 0 1 -1.5875,1.5875 1.5874997,1.5874997 0 0 1 -1.5875,-1.5875 1.5874997,1.5874997 0 0 1 1.5875,-1.5875 z m -41.600036,8.49974 a 1.5874996,1.5874996 0 0 1 1.587497,1.5875 1.5874996,1.5874996 0 0 1 -1.587497,1.5875 1.5874996,1.5874996 0 0 1 -1.5875,-1.5875 1.5874996,1.5874996 0 0 1 1.5875,-1.5875 z m 20.799768,0 a 1.5874996,1.5874996 0 0 1 1.5875,1.5875 1.5874996,1.5874996 0 0 1 -1.5875,1.5875 1.5874996,1.5874996 0 0 1 -1.5875,-1.5875 1.5874996,1.5874996 0 0 1 1.5875,-1.5875 z m 20.800268,0 a 1.5874997,1.5874997 0 0 1 1.5875,1.5875 1.5874997,1.5874997 0 0 1 -1.5875,1.5875 1.5874997,1.5874997 0 0 1 -1.5875,-1.5875 1.5874997,1.5874997 0 0 1 1.5875,-1.5875 z"
       style="opacity:0.45400002;fill:#ff0000;fill-opacity:0.35680751;stroke:none;stroke-width:0.60000002;stroke-linecap:square;stroke-linejoin:round;stroke-miterlimit:4;stroke-dasharray:none;stroke-opacity:1" />
    <path
       id="rect5799"
       d="m 24.012923,55.329667 a 2.5944941,2.4999999 0 0 0 -2.594674,2.500102 V 88.82942 a 2.5944941,2.4999999 0 0 0 2.594674,2.50012 h 14.054958 a 1,1 0 0 1 0.99942,-0.98599 1,1 0 0 1 0.99943,0.98599 h 18.801428 a 1,1 0 0 1 0.99943,-0.98599 1,1 0 0 1 0.99942,0.98599 h 18.800908 a 1,1 0 0 1 0.99942,-0.98599 1,1 0 0 1 0.99942,0.98599 h 3.657137 a 2.5944941,2.4999999 0 0 0 2.59416,-2.50012 V 57.923829 a 2.4999999,2.5944941 0 0 0 -2.5001,-2.594162 z m 4.654497,2.987412 a 1,1 0 0 1 0.99994,0.99994 1,1 0 0 1 -0.99994,1.00045 1,1 0 0 1 -0.99994,-1.00045 1,1 0 0 1 0.99994,-0.99994 z m 20.800295,0 a 1,1 0 0 1 0.99993,0.99994 1,1 0 0 1 -0.99993,1.00045 1,1 0 0 1 -0.99994,-1.00045 1,1 0 0 1 0.99994,-0.99994 z m 20.799748,0 a 1,1 0 0 1 0.99994,0.99994 1,1 0 0 1 -0.99994,1.00045 1,1 0 0 1 -0.99994,-1.00045 1,1 0 0 1 0.99994,-0.99994 z M 28.668454,61.57373 a 2.2499997,1.7488676 0 0 1 2.249478,1.72599 v 8.02534 A 2.2499997,1.7488676 0 0 1 28.66742,73.0738 2.2499997,1.7488676 0 0 1 26.417946,71.34781 v -8.02537 a 2.2499997,1.7488676 0 0 1 2.250508,-1.74871 z m 20.800291,0 a 2.2499997,1.7488676 0 0 1 2.249467,1.72599 v 8.02534 a 2.2499997,1.7488676 0 0 1 -2.250497,1.74874 2.2499997,1.7488676 0 0 1 -2.24948,-1.72599 v -8.02537 a 2.2499997,1.7488676 0 0 1 2.25051,-1.74871 z m 20.799748,0 a 2.2499997,1.7488676 0 0 1 2.249477,1.72599 v 8.02534 a 2.2499997,1.7488676 0 0 1 -2.250507,1.74874 2.2499997,1.7488676 0 0 1 -2.24948,-1.72599 v -8.02537 a 2.2499997,1.7488676 0 0 1 2.25051,-1.74871 z M 39.067301,74.33006 a 1,1 0 0 1 0.99994,0.99994 1,1 0 0 1 -0.99994,1.00045 1,1 0 0 1 -0.99994,-1.00045 1,1 0 0 1 0.99994,-0.99994 z m 20.800288,0 a 1,1 0 0 1 0.99993,0.99994 1,1 0 0 1 -0.99993,1.00045 1,1 0 0 1 -0.99994,-1.00045 1,1 0 0 1 0.99994,-0.99994 z m 20.799748,0 a 1,1 0 0 1 0.99994,0.99994 1,1 0 0 1 -0.99994,1.00045 1,1 0 0 1 -0.99994,-1.00045 1,1 0 0 1 0.99994,-0.99994 z m -51.999917,5.1e-4 a 1,1 0 0 1 0.99994,0.99994 1,1 0 0 1 -0.99994,0.99994 1,1 0 0 1 -0.99994,-0.99994 1,1 0 0 1 0.99994,-0.99994 z m 20.800295,0 a 1,1 0 0 1 0.99993,0.99994 1,1 0 0 1 -0.99993,0.99994 1,1 0 0 1 -0.99994,-0.99994 1,1 0 0 1 0.99994,-0.99994 z m 20.799748,0 a 1,1 0 0 1 0.99994,0.99994 1,1 0 0 1 -0.99994,0.99994 1,1 0 0 1 -0.99994,-0.99994 1,1 0 0 1 0.99994,-0.99994 z m -31.200162,3.25665 a 2.2499997,1.7488676 0 0 1 2.249477,1.72601 v 8.04084 a 2.2499997,1.7488676 0 0 1 -2.249477,1.73271 2.2499997,1.7488676 0 0 1 -2.25051,-1.74874 v -8.00209 a 2.2499997,1.7488676 0 0 1 2.25051,-1.74873 z m 20.801318,0 a 2.2499997,1.7488676 0 0 1 2.249477,1.72601 v 8.02481 a 2.2499997,1.7488676 0 0 1 -2.250507,1.74874 2.2499997,1.7488676 0 0 1 -2.24948,-1.72599 v -8.02484 a 2.2499997,1.7488676 0 0 1 2.25051,-1.74873 z m 20.799748,0 a 2.2499997,1.7488676 0 0 1 2.249477,1.72601 v 8.02481 a 2.2499997,1.7488676 0 0 1 -2.250507,1.74874 2.2499997,1.7488676 0 0 1 -2.24948,-1.72599 v -8.02484 a 2.2499997,1.7488676 0 0 1 2.25051,-1.74873 z"
       style="opacity:0.45400002;fill:#ff0000;fill-opacity:0.35680751;stroke:none;stroke-width:0.60000002;stroke-linecap:square;stroke-linejoin:round;stroke-miterlimit:4;stroke-dasharray:none;stroke-opacity:1" />
    <flowRoot
       transform="matrix(0.26458333,0,0,0.26458333,-28.276921,-39.319934)"
       style="font-style:normal;font-weight:normal;font-size:40px;line-height:1.25;font-family:sans-serif;letter-spacing:0px;word-spacing:0px;fill:#000000;fill-opacity:1;stroke:none"
       id="flowRoot13426"
       xml:space="preserve"><flowRegion
         id="flowRegion13428"><rect
           y="277.71429"
           x="195.71428"
           height="92.85714"
           width="462.85715"
           id="rect13430" /></flowRegion><flowPara
         id="flowPara13432">f spaced</flowPara></flowRoot>    <flowRoot
       transform="matrix(0.26458333,0,0,0.26458333,-114.05789,-40.309781)"
       style="font-style:normal;font-weight:normal;font-size:40px;line-height:1.25;font-family:sans-serif;letter-spacing:0px;word-spacing:0px;fill:#000000;fill-opacity:1;stroke:none"
       id="flowRoot13434"
       xml:space="preserve"><flowRegion
         id="flowRegion13436"><rect
           y="739.14288"
           x="818.57141"
           height="120"
           width="367.14285"
           id="rect13438" /></flowRegion><flowPara
         id="flowPara13440">standard</flowPara></flowRoot>    <rect
       ry="0"
       y="5.0519981"
       x="24.589911"
       height="10"
       width="10"
       id="rect13442"
       style="opacity:1;fill:#ff0000;fill-opacity:1;fill-rule:nonzero;stroke:none;stroke-width:1.94105875;stroke-linecap:square;stroke-linejoin:miter;stroke-miterlimit:4;stroke-dasharray:none;stroke-dashoffset:0;stroke-opacity:1;paint-order:fill markers stroke" />
    <flowRoot
       transform="matrix(0.26458333,0,0,0.26458333,-40.606346,-44.14356)"
       style="font-style:normal;font-weight:normal;font-size:40px;line-height:1.25;font-family:sans-serif;letter-spacing:0px;word-spacing:0px;fill:#000000;fill-opacity:1;stroke:none"
       id="flowRoot13444"
       xml:space="preserve"><flowRegion
         id="flowRegion13446"><rect
           y="189.32463"
           x="302.03561"
           height="86.873116"
           width="387.89859"
           id="rect13448" /></flowRegion><flowPara
         id="flowPara13450">10 x 10 mm</flowPara></flowRoot>  </g>
</svg>
